<svg
  xmlns="http://www.w3.org/2000/svg" viewBox="0 0 86 86">
  <title>hh</title>
  <g id="Circle">
    <circle cx="43" cy="43" r="43" style="fill:#0c2340"/>
  </g>
  <g id="Home">
    <path d="M311.67,280.23,305.58,276V262.9a.78.78,0,0,0-.78-.78h-6a.78.78,0,0,0-.79.78v7.77l-11.9-8.33a.77.77,0,0,0-.89,0l-25.56,17.89a.79.79,0,0,0-.19,1.09l3.48,5a.77.77,0,0,0,.64.34.72.72,0,0,0,.45-.15l1.53-1.06v24.27a.78.78,0,0,0,.79.78h13.43a.78.78,0,0,0,.79-.78V291.58h10.17v18.11a.79.79,0,0,0,.79.78h13.34a.78.78,0,0,0,.78-.78V285.34l1.64,1.14a.77.77,0,0,0,1.09-.19l3.48-5a.83.83,0,0,0,.13-.59.76.76,0,0,0-.32-.51" transform="translate(-242 -246)" style="fill:#fff"/>
  </g>
</svg>
