<svg
  xmlns="http://www.w3.org/2000/svg" viewBox="0 0 86 86">
  <title>pl</title>
  <g id="Circle">
    <circle style="fill:#0c2340;" cx="43" cy="43" r="43"/>
  </g>
  <g id="Liability">
    <path style="fill:#fff;" d="M266,303.32c6.62,4.08,16.51,4.33,28.59.73,3.5-1.05,11.42-5.6,15.71-9.39.05-.45.09-1,.1-1.71l.06-.41c1-9.75-4.87-18.73-13.92-22.79l-.75-3.57-1.36.36c-7,2.69-17.09,10.31-19.08,31.47l-5.33-2.19s3.15-15.51,10.81-22.73a33.85,33.85,0,0,1,8-5.48h-.34c-12.95-1.31-22.7,6.42-26.37,18.82l-2.21,10,0,.27a15.94,15.94,0,0,0,6.15,6.66" transform="translate(-240 -250)"/>
    <path style="fill:#fff;" d="M279.18,308.38A26.48,26.48,0,0,1,265,304.79a18.12,18.12,0,0,1-6.28-6.48,42.89,42.89,0,0,0-3.35,5.44c-1.74,3.52-1.58,5.48.67,6.56,15.85,7.66,21.15,9.07,29.89,4.85,0,0,15.21-7.4,24.4-14.92.7-.57,2-3.28.82-3.85-4.55,3.86-12.42,8.33-16,9.39a57,57,0,0,1-16,2.6" transform="translate(-240 -250)"/>
  </g>
</svg>
