<svg
  xmlns="http://www.w3.org/2000/svg" viewBox="0 0 86 86">
  <title>cn</title>
  <g id="Circle">
    <circle style="fill:#0c2340;" cx="43" cy="43" r="43"/>
  </g>
  <g id="Caravan">
    <path style="fill:#fff;" d="M286.47,308.43a3,3,0,1,1,3-3,3,3,0,0,1-3,3m0-8.71a5.7,5.7,0,1,0,5.69,5.7,5.7,5.7,0,0,0-5.69-5.7" transform="translate(-240 -250)"/>
    <path style="fill:#fff;" d="M306.68,290.06a.87.87,0,0,1-.88.88H287.38a.88.88,0,0,1-.89-.88v-5.81a.89.89,0,0,1,.89-.89H305.8a.88.88,0,0,1,.88.89Zm-30.26,0a.87.87,0,0,1-.88.88h-8.32a.88.88,0,0,1-.89-.88v-5.81a.89.89,0,0,1,.89-.89h8.32a.88.88,0,0,1,.88.89Zm31.34-12.42c-1.82-.62-13.59-1.86-21.34-1.86s-20.21,1.25-22.06,1.79c-.18.06-5.67,1.55-5.67,7.44v15.73a4.66,4.66,0,0,0,.95,2.83h-7.32v1.85h27.77a6.38,6.38,0,1,1,12.76,0h15.47a4.69,4.69,0,0,0,4.68-4.68V284.18a7.35,7.35,0,0,0-5.24-6.54" transform="translate(-240 -250)"/>
  </g>
</svg>
