<svg
  xmlns="http://www.w3.org/2000/svg" viewBox="0 0 86 86">
  <title>cc</title>
  <g id="Circle">
    <circle style="fill:#0c2340;" cx="43" cy="43" r="43"/>
  </g>
  <g id="CC">
    <path style="fill:#fff;" d="M303.53,275.35H264.16a6.47,6.47,0,0,0-6.47,6.47V308a6.47,6.47,0,0,0,6.47,6.47h39.37A6.47,6.47,0,0,0,310,308V281.82a6.47,6.47,0,0,0-6.47-6.47" transform="translate(-240 -250)"/>
    <path style="fill:#fff;" d="M292.17,265.88H275.52a6.59,6.59,0,0,0-6.58,6.58v2.21h4.19v-.43a4.6,4.6,0,0,1,4.6-4.6h11.62a4.6,4.6,0,0,1,4.59,4.6v.43h4.81v-2.21a6.59,6.59,0,0,0-6.58-6.58" transform="translate(-240 -250)"/>
  </g>
</svg>
