<svg
  xmlns="http://www.w3.org/2000/svg" viewBox="0 0 86 86">
  <title>cvt</title>
  <g id="Circle">
    <circle style="fill:#0c2340;" cx="43" cy="43" r="43"/>
  </g>
  <g id="Truck">
    <path style="fill:#fff;" d="M264.36,279.15H262.7a.67.67,0,0,0-.67.66v9.76a.67.67,0,0,0,.67.66h1.66a.67.67,0,0,0,.66-.66v-9.76a.67.67,0,0,0-.66-.66" transform="translate(-240 -250)"/>
    <path style="fill:#fff;" d="M305.2,279.15h-1.66a.66.66,0,0,0-.66.66v9.76a.66.66,0,0,0,.66.66h1.66a.67.67,0,0,0,.66-.66v-9.76a.67.67,0,0,0-.66-.66" transform="translate(-240 -250)"/>
    <path style="fill:#fff;" d="M301.56,292.47a1.33,1.33,0,0,0-1.15-1.31,2.73,2.73,0,0,0,0-.41V269.33c0-1.33-.6-2.41-1.33-2.41A78.42,78.42,0,0,0,284,265.05a80.27,80.27,0,0,0-15.22,1.87c-.73,0-1.32,1.08-1.32,2.41v21.42c0,.14,0,.28,0,.41a1.32,1.32,0,0,0-1.14,1.31V298a1.29,1.29,0,0,0-.47,1v6.13a1.29,1.29,0,0,0,.47,1v9.3a1.32,1.32,0,0,0,.93,1.26v.47a1.33,1.33,0,0,0,1.33,1.32h2.06a1.3,1.3,0,0,0,1.09-.57,1.32,1.32,0,0,0,1.1.57h2.06a1.33,1.33,0,0,0,1.33-1.32v-.41h15.42v.41A1.33,1.33,0,0,0,293,318.5h2.06a1.29,1.29,0,0,0,1.09-.57,1.32,1.32,0,0,0,1.1.57h2.06a1.32,1.32,0,0,0,1.32-1.32v-.47a1.32,1.32,0,0,0,.94-1.26v-9.3a1.33,1.33,0,0,0,.47-1V299a1.33,1.33,0,0,0-.47-1v-5.55ZM284,277.53c5.88,0,15.74.63,15.74.63l-.61,12.48-.33.5h-29.6l-.34-.5-.6-12.48s9.86-.63,15.74-.63m8.44,21.63H275.5l-2.42-.79-.15-1h22l-.15,1Zm2.05.82-.14,1-2.31.8H275.91l-2.31-.8-.14-1h21Zm-26.32,15a.85.85,0,1,1,.85-.85.85.85,0,0,1-.85.85m5.76-3.44a1.32,1.32,0,0,1-1.32,1.33l-4-.47a1.33,1.33,0,0,1-1.33-1.33v-1a1.34,1.34,0,0,1,1.33-1.33l4,.94c.73.22,1.32.59,1.32,1.33Zm18.82-.05-2,.79H277.15l-1.95-.79-.12-1h17.74Zm.67-2.63-2.11.79H276.63l-2.1-.79-.13-1h19.09Zm.2-2.63-2.14.79h-15l-2.14-.79-.13-1h19.5Zm-1.8-1.84H276.13l-2.25-.79-.13-1h20.4l-.14,1Zm3.59,8.48a1.32,1.32,0,0,1-1.32-1.33V311c0-.74.59-1.11,1.32-1.33l4-.94a1.34,1.34,0,0,1,1.33,1.33v1a1.33,1.33,0,0,1-1.33,1.33ZM299.8,315a.85.85,0,1,1,.85-.85.85.85,0,0,1-.85.85" transform="translate(-240 -250)"/>
  </g>
</svg>
