<svg
  xmlns="http://www.w3.org/2000/svg" viewBox="0 0 86 86">
  <title>pc</title>
  <g id="Circle">
    <circle cx="43" cy="43" r="43" style="fill:#0c2340"/>
  </g>
  <g id="Car">
    <path d="M274,280.36c-3.13.11-6.28.18-9.41.42a3,3,0,0,0-2.76,1.67c-.51,1.13-1.25,2.57-.46,3.75a2.88,2.88,0,0,0,2.45,1c4.23.25,8.45.51,12.68.73.5.1,1.1-.26,1-.83-.32-2-.68-4.05-1-6.09-.09-.23,0-.59-.24-.73-.75,0-1.49,0-2.24.05m3.64,0c0,.1,0,.29,0,.38.49,2.25,1,4.49,1.5,6.73.11.59.8.7,1.29.69,5.06.08,10.11.44,15.17.42a.83.83,0,0,0,.62-1.3,13.9,13.9,0,0,0-2.1-1.88,26.82,26.82,0,0,0-8.19-4.6,29,29,0,0,0-6-.46,20.28,20.28,0,0,0-2.34,0m-4.4-1.55a91.74,91.74,0,0,1,9.67,0,23.56,23.56,0,0,1,4.81.7,14.75,14.75,0,0,1,2.51,1.11c3.87,1.89,7.9,3.48,11.53,5.83a2.61,2.61,0,0,0,.79.42,104.45,104.45,0,0,1,11.08,2.51,7.57,7.57,0,0,1,3.53,2,4.51,4.51,0,0,1,.76,3c.33.08.83,0,1,.37a14.72,14.72,0,0,1,0,2.1,1,1,0,0,1-1,.6,23.42,23.42,0,0,0-1,2.15,3.1,3.1,0,0,1,.6,1.06c-2,.07-4.09.09-6.14.1A6.36,6.36,0,0,0,300,295.7a8.32,8.32,0,0,0-1,5.09q-15.74.1-31.46.22a7.47,7.47,0,0,0-.46-4c-1.55-3.55-6.67-5-9.77-2.59a7.39,7.39,0,0,0-2.89,5.93,7.81,7.81,0,0,1-2.85-.18c-.06-1,.14-2,.13-3a3.79,3.79,0,0,1-1.42-.59,18.18,18.18,0,0,1-.06-2.33c.06-.71,1.19-.09,1.29-.8,0-.49-.07-1,0-1.46.33-.61.11-1.32.15-2,0-.41-.39-.66-.36-1.07a5.55,5.55,0,0,1,.68-2.44,30,30,0,0,1,3.53-5.47c.15-.19.3-.45.58-.44a150.58,150.58,0,0,1,17.23-1.78" transform="translate(-240 -250)" style="fill:#fff"/>
    <path d="M304.44,293.82a5.65,5.65,0,0,1,5,1.69,5.39,5.39,0,0,1,.33,7,5.64,5.64,0,0,1-7.26,1.37,5.42,5.42,0,0,1-2.45-6.35,5.53,5.53,0,0,1,4.37-3.68" transform="translate(-240 -250)" style="fill:#fff"/>
    <path d="M260.12,294.52a5.64,5.64,0,0,1,5.06,1.83,5.4,5.4,0,0,1,.33,6.69,5.65,5.65,0,0,1-6.9,1.77,5.47,5.47,0,0,1-3.1-4,5.34,5.34,0,0,1,1-4.17,5.52,5.52,0,0,1,3.64-2.16" transform="translate(-240 -250)" style="fill:#fff"/>
  </g>
</svg>
