<svg xmlns="http://www.w3.org/2000/svg" id="Layer_2" data-name="Layer 2" viewBox="0 0 73.55 73.55"
>
  <title>arrows</title>
  <path d="M301.09,277.59a1.57,1.57,0,0,1-2.28,0l-14.19-14s-1.15-1.14-1.15.49v10.76a4.28,4.28,0,0,0,1.15,2.77l14.19,14a1.58,1.58,0,0,0,2.28,0l14.35-14a4.29,4.29,0,0,0,1.14-2.77V263.9s0-1.64-1.14-.49Z" transform="translate(-263.17 -263)" style="fill:#97d700"/>
  <path d="M277.77,300.92a1.58,1.58,0,0,0,0-2.28l-14-14.19s-1.14-1.15.49-1.15H275a4.32,4.32,0,0,1,2.78,1.15l14,14.19a1.58,1.58,0,0,1,0,2.28l-14,14.35a4.33,4.33,0,0,1-2.78,1.14H264.07s-1.63,0-.49-1.14Z" transform="translate(-263.17 -263)" style="fill:#5ba50a"/>
  <path d="M322.29,298.63a1.59,1.59,0,0,0,0,2.29l14,14s1.14,1.15-.49,1.15H325.06a4.28,4.28,0,0,1-2.77-1.15l-14-14a1.58,1.58,0,0,1,0-2.29l14-14.18a4.27,4.27,0,0,1,2.77-1.15h10.77s1.63,0,.49,1.15Z" transform="translate(-263.17 -263)" style="fill:#5ba50a"/>
  <path d="M298.81,322.12a1.58,1.58,0,0,1,2.28,0l14.19,14s1.14,1.14,1.14-.49V324.89a4.3,4.3,0,0,0-1.14-2.77l-14.19-14a1.58,1.58,0,0,0-2.28,0l-14.19,14a4.27,4.27,0,0,0-1.15,2.77v10.77s0,1.63,1.15.49Z" transform="translate(-263.17 -263)" style="fill:#97d700"/>
</svg>
