<svg xmlns="http://www.w3.org/2000/svg" id="Layer_1" data-name="Layer 1" viewBox="0 0 418.59 73.55">
  <title>logo-white</title>
  <path d="M128.94,277.59a1.57,1.57,0,0,1-2.28,0l-14.19-14s-1.15-1.14-1.15.49v10.76a4.28,4.28,0,0,0,1.15,2.77l14.19,14a1.58,1.58,0,0,0,2.28,0l14.35-14a4.29,4.29,0,0,0,1.14-2.77V263.9s0-1.64-1.14-.49Z" transform="translate(-91.02 -263)" style="fill:#97d700"/>
  <path d="M105.62,300.92a1.58,1.58,0,0,0,0-2.28l-14-14.19s-1.14-1.15.49-1.15h10.76a4.32,4.32,0,0,1,2.78,1.15l14,14.19a1.58,1.58,0,0,1,0,2.28l-14,14.35a4.33,4.33,0,0,1-2.78,1.14H91.92s-1.63,0-.49-1.14Z" transform="translate(-91.02 -263)" style="fill:#5ba50a"/>
  <path d="M150.14,298.63a1.59,1.59,0,0,0,0,2.29l14,14s1.14,1.15-.49,1.15H152.92a4.3,4.3,0,0,1-2.78-1.15l-14-14a1.58,1.58,0,0,1,0-2.29l14-14.18a4.28,4.28,0,0,1,2.78-1.15h10.76s1.63,0,.49,1.15Z" transform="translate(-91.02 -263)" style="fill:#5ba50a"/>
  <path d="M126.66,322.12a1.58,1.58,0,0,1,2.28,0l14.19,14s1.14,1.14,1.14-.49V324.89a4.3,4.3,0,0,0-1.14-2.77l-14.19-14a1.58,1.58,0,0,0-2.28,0l-14.19,14a4.29,4.29,0,0,0-1.14,2.77v10.77s0,1.63,1.14.49Z" transform="translate(-91.02 -263)" style="fill:#97d700"/>
  <path d="M186.35,299.94A17.53,17.53,0,0,0,204,317.55a16.71,16.71,0,0,0,11.91-4.73.84.84,0,0,0,0-1.3l-3.1-3.1a1,1,0,0,0-1.3,0,12.12,12.12,0,0,1-7.51,2.77A11.1,11.1,0,0,1,193,299.94c0-6.2,4.56-11.42,10.92-11.42a11.35,11.35,0,0,1,7.51,2.94,1,1,0,0,0,1.3,0l2.94-3.1a1,1,0,0,0,0-1.3,16.62,16.62,0,0,0-11.91-4.57c-9.62-.33-17.45,7.66-17.45,17.45m38,0A17.62,17.62,0,1,0,242,282.33a17.54,17.54,0,0,0-17.62,17.61m6.36,0A11.26,11.26,0,1,1,242,311.19a11.28,11.28,0,0,1-11.26-11.25m50.24,17a.74.74,0,0,0,.81.49h.49c.49,0,.65-.33.82-.49L298.24,284a.9.9,0,0,0-.82-1.31h-5.06c-.49,0-.81.33-.81.49l-9.46,21h-.16l-9.46-21a.76.76,0,0,0-.82-.49h-5.06a.89.89,0,0,0-.81,1.31Zm27.07-.81a.94.94,0,0,0,1,1h19.9a1,1,0,0,0,1-1V312a.94.94,0,0,0-1-1H314.38v-8.48h12.07a.94.94,0,0,0,1-1v-4.08a1.05,1.05,0,0,0-1-1H314.38v-8H328.9a1.05,1.05,0,0,0,1-1v-4.07a.94.94,0,0,0-1-1H309a1.05,1.05,0,0,0-1,1Zm34.09,0a.93.93,0,0,0,1,1h4.56a1,1,0,0,0,1-1V303.53H354l6.53,13.05a1,1,0,0,0,.81.48h5.06a1,1,0,0,0,.82-1.46l-6.69-12.4c4.24-1.79,7.17-5.38,7.17-9.95a10.44,10.44,0,0,0-10.6-10.44h-14a1.05,1.05,0,0,0-1,1Zm6.36-17.78v-9.79h8a4.87,4.87,0,0,1,4.89,4.73,5,5,0,0,1-4.89,5.06Zm40.61,19.08c6.85,0,11.25-4.73,11.25-9.62,0-6.36-5.54-9.13-10.27-11.09-3.92-1.63-5.71-3.26-5.71-5.55,0-1.79,1.47-3.42,4.24-3.42s4.73,1.3,6.85,2.61a1.43,1.43,0,0,0,1.8-.66l1.79-2.77a1.26,1.26,0,0,0-.33-1.63,16.49,16.49,0,0,0-9.78-3.26c-7.83,0-11.09,5.06-11.09,9.46,0,5.71,4.56,8.64,9.13,10.6,4.08,1.63,6.2,3.43,6.2,5.87,0,2.12-2,3.75-4.41,3.75-3.26,0-5.38-1.47-7.34-3.1a1.12,1.12,0,0,0-1.63.33L378,312c-.49.81-.33,1.14.16,1.47a16.21,16.21,0,0,0,10.93,3.91m23-13.05c0,7.5,5.87,13.05,13.53,13.05s13.7-5.71,13.7-13.05V283.63a1.05,1.05,0,0,0-1-1h-4.73a1.05,1.05,0,0,0-1,1V304a6.81,6.81,0,0,1-7.18,7,6.68,6.68,0,0,1-7-7V283.63a.94.94,0,0,0-1-1h-4.73a1.05,1.05,0,0,0-1,1v20.71Zm39.14,11.75a.94.94,0,0,0,1,1h4.56a1,1,0,0,0,1-1V303.53h5.39l6.52,13.05a1,1,0,0,0,.82.48h5a1,1,0,0,0,.82-1.46l-6.69-12.4c4.24-1.79,7.18-5.38,7.18-9.95a10.44,10.44,0,0,0-10.6-10.44h-14a1.05,1.05,0,0,0-1,1Zm6.36-17.78v-9.79h8a4.88,4.88,0,0,1,4.9,4.73,5.05,5.05,0,0,1-4.9,5.06Zm30.34,17.78a.93.93,0,0,0,1,1h19.73a1,1,0,0,0,1-1V312a.94.94,0,0,0-1-1H494.12v-8.48h12.06a.94.94,0,0,0,1-1v-4.08a1.05,1.05,0,0,0-1-1H494.12v-8h14.51a1.05,1.05,0,0,0,1-1v-4.07a.94.94,0,0,0-1-1h-19.9a1.05,1.05,0,0,0-1,1v32.62Z" transform="translate(-91.02 -263)" style="fill:#fff"/>
</svg>
